<svg width="800" height="800" viewBox="0 0 24 24" fill="none" xmlns="http://www.w3.org/2000/svg">
<path d="M3 12v3.8c0 1.12 0 1.68.218 2.108a2 2 0 0 0 .874.874C4.52 19 5.08 19 6.2 19h11.6c1.12 0 1.68 0 2.108-.218a2
 2 0 0 0 .874-.874C21 17.48 21 16.92 21 15.8V12M3 12h3.675c.489 0 .733 0
  .963.055.205.05.4.13.579.24.201.123.374.296.72.642l.126.126c.346.346.519.519.72.642.18.11.375.19.579.24.23.055.474.055.963.055h1.35c.489
   0 .733 0 .963-.055.204-.05.4-.13.579-.24.201-.123.374-.296.72-.642l.126-.126c.346-.346.519-.519.72-.642.18-.11.374-.19.579-.24.23-.055.474-.055.964-.055H21M3
    12l2.326-5.17c.462-1.024.692-1.537 1.054-1.912a3 3 0 0 1 1.147-.742C8.018 4 8.58 4 9.704
     4h4.592c1.124 0 1.686 0 2.177.176a3 3 0 0 1 1.147.742c.362.375.592.888 1.054 1.912L21 12"
    stroke="#fff" stroke-width="2" stroke-linecap="round" stroke-linejoin="round"/>
</svg>